<svg width="126" height="126" viewBox="0 0 126 126" fill="none" xmlns="http://www.w3.org/2000/svg">
<circle cx="63" cy="63" r="63" fill="#8A6B42"/>
<path d="M84.6938 87.625C78.8778 87.625 73.1316 86.3576 67.4552 83.8228C61.7788 81.2879 56.6142 77.6932 51.9615 73.0385C47.3087 68.3839 43.7149 63.2193 41.18 57.5448C38.6452 51.8703 37.3769 46.1241 37.375 40.3063C37.375 39.4688 37.6542 38.7708 38.2125 38.2125C38.7708 37.6542 39.4688 37.375 40.3063 37.375H51.6125C52.2639 37.375 52.8455 37.5965 53.3573 38.0394C53.8691 38.4824 54.1715 39.0053 54.2646 39.6083L56.0792 49.3792C56.1722 50.1236 56.149 50.7517 56.0094 51.2635C55.8698 51.7753 55.6139 52.2174 55.2417 52.5896L48.4719 59.4292C49.4024 61.1507 50.507 62.8136 51.7856 64.4179C53.0642 66.0222 54.4721 67.5697 56.0094 69.0604C57.4517 70.5028 58.9639 71.8409 60.5458 73.0748C62.1278 74.3088 63.8028 75.4366 65.5708 76.4583L72.1313 69.8979C72.55 69.4792 73.0972 69.1656 73.7728 68.9571C74.4483 68.7487 75.1109 68.6901 75.7604 68.7812L85.3917 70.7354C86.0431 70.9215 86.5781 71.2593 86.9969 71.7488C87.4156 72.2383 87.625 72.7845 87.625 73.3875V84.6938C87.625 85.5313 87.3458 86.2292 86.7875 86.7875C86.2292 87.3458 85.5313 87.625 84.6938 87.625Z" fill="white"/>
</svg>
